{"title":"Texas.Chainsaw.2013.CAM.XViD.Happyviking","uid":8004812,"size":1497399296,"categoryP":"video","categoryS":"movies","magnet":"?xt=urn:btih:53eea0af5120add162ca571b342fc977af6cac8e&amp;dn=Texas.Chainsaw.2013.CAM.XViD.Happyviking&amp;tr=udp%3A%2F%2Ftracker.openbittorrent.com%3A80&amp;tr=udp%3A%2F%2Fopen.demonii.com%3A1337&amp;tr=udp%3A%2F%2Ftracker.coppersurfer.tk%3A6969&amp;tr=udp%3A%2F%2Fexodus.desync.com%3A6969","seeders":0,"leechers":0,"uploader":"Happyviking","files":-1,"time":1357863529,"description":" &lt;a href=&quot;\nhttp://www.imdb.com/title/tt1572315/&quot; rel=&quot;nofollow&quot; target=&quot;_NEW&quot;&gt;\nhttp://www.imdb.com/title/tt1572315/&lt;/a&gt;\n\n\nGeneral\nComplete name                    : Texas Chainsaw 2013 CAM XViD \nFormat                           : AVI\nFormat/Info                      : Audio Video Interleave\nFile size                        : 1.39 GiB\nDuration                         : 1h 26mn\nOverall bit rate                 : 2 318 Kbps\nWriting application              : VirtualDubMod 1.5.10.3 | www.virtualdub-fr.org || (build 2550/release)\nWriting library                  : VirtualDubMod build 2550/release\n\nVideo\nID                               : 0\nFormat                           : MPEG-4 Visual\nFormat profile                   : Advanced Simple@L5\nFormat settings, BVOP            : 2\nFormat settings, QPel            : No\nFormat settings, GMC             : No warppoints\nFormat settings, Matrix          : Default (H.263)\nMuxing mode                      : Packed bitstream\nCodec ID                         : XVID\nCodec ID/Hint                    : XviD\nDuration                         : 1h 26mn\nBit rate                         : 2 114 Kbps\nWidth                            : 682 pixels\nHeight                           : 284 pixels\nDisplay aspect ratio             : 2.40:1\nFrame rate                       : 29.970 fps\nColor space                      : YUV\nChroma subsampling               : 4:2:0\nBit depth                        : 8 bits\nScan type                        : Progressive\nCompression mode                 : Lossy\nBits/(Pixel*Frame)               : 0.364\nStream size                      : 1.27 GiB (91%)\nWriting library                  : XviD 64\n\nAudio\nID                               : 1\nFormat                           : AC-3\nFormat/Info                      : Audio Coding 3\nMode extension                   : CM (complete main)\nCodec ID                         : 2000\nDuration                         : 1h 26mn\nBit rate mode                    : Constant\nBit rate                         : 192 Kbps\nChannel(s)                       : 2 channels\nChannel positions                : Front: L R\nSampling rate                    : 48.0 KHz\nBit depth                        : 16 bits\nCompression mode                 : Lossy\nStream size                      : 118 MiB (8%)\nAlignment                        : Aligned on interleaves\nInterleave, duration             : 33 ms (1.00 video frame)\nInterleave, preload duration     : 512 ms\n\n\nScreenshot:\n &lt;a href=&quot;\nhttp://bayimg.com/eAImmaaeg&quot; rel=&quot;nofollow&quot; target=&quot;_NEW&quot;&gt;\nhttp://bayimg.com/eAImmaaeg&lt;/a&gt; &lt;a href=&quot;\nhttp://bayimg.com/EAimnaAeG&quot; rel=&quot;nofollow&quot; target=&quot;_NEW&quot;&gt;\nhttp://bayimg.com/EAimnaAeG&lt;/a&gt; &lt;a href=&quot;\nhttp://bayimg.com/eaimOaaEG&quot; rel=&quot;nofollow&quot; target=&quot;_NEW&quot;&gt;\nhttp://bayimg.com/eaimOaaEG&lt;/a&gt; &lt;a href=&quot;\nhttp://bayimg.com/EAImpaAEg&quot; rel=&quot;nofollow&quot; target=&quot;_NEW&quot;&gt;\nhttp://bayimg.com/EAImpaAEg&lt;/a&gt; &lt;a href=&quot;\nhttp://bayimg.com/fAimBaAeg&quot; rel=&quot;nofollow&quot; target=&quot;_NEW&quot;&gt;\nhttp://bayimg.com/fAimBaAeg&lt;/a&gt; &lt;a href=&quot;\nhttp://bayimg.com/FaImcaaeG&quot; rel=&quot;nofollow&quot; target=&quot;_NEW&quot;&gt;\nhttp://bayimg.com/FaImcaaeG&lt;/a&gt;\n\n\nM   7/10  Good Cam\n\nA   7/10  Good cam-audio   \n\n","torrent":{"xt":"urn:btih:53eea0af5120add162ca571b342fc977af6cac8e","amp;dn":"Texas.Chainsaw.2013.CAM.XViD.Happyviking","amp;tr":["udp%3A%2F%2Ftracker.openbittorrent.com%3A80","udp%3A%2F%2Fopen.demonii.com%3A1337","udp%3A%2F%2Ftracker.coppersurfer.tk%3A6969","udp%3A%2F%2Fexodus.desync.com%3A6969"],"infoHash":"53eea0af5120add162ca571b342fc977af6cac8e","infoHashBuffer":{"type":"Buffer","data":[83,238,160,175,81,32,173,209,98,202,87,27,52,47,201,119,175,108,172,142]},"announce":[],"urlList":[]}}